<svg xmlns="http://www.w3.org/2000/svg" xmlns:xlink="http://www.w3.org/1999/xlink" contentStyleType="text/css" data-diagram-type="DESCRIPTION" height="974px" preserveAspectRatio="none" style="width:1740px;height:974px;background:#F9F9F9;" version="1.1" viewBox="0 0 1740 974" width="1740px" zoomAndPan="magnify"><title>&#24212;&#29992;&#26550;&#26500;&#65306;Docker &#20013;&#36816;&#34892; Ollama &#24182;&#28151;&#21512;&#21152;&#36733;&#24320;&#28304;&#19982;&#38381;&#28304;&#22823;&#27169;&#22411;</title><defs/><g><rect fill="#F9F9F9" height="974" style="stroke:none;stroke-width:1;" width="1740" x="0" y="0"/><g class="title" data-source-line="5"><text fill="#000000" font-family="sans-serif" font-size="14" font-weight="bold" lengthAdjust="spacing" textLength="418.8503" x="653.9543" y="22.9951">&#24212;&#29992;&#26550;&#26500;&#65306;Docker &#20013;&#36816;&#34892; Ollama &#24182;&#28151;&#21512;&#21152;&#36733;&#24320;&#28304;&#19982;&#38381;&#28304;&#22823;&#27169;&#22411;</text></g><!--cluster ?????--><g class="cluster" data-entity="....." data-source-line="7" data-uid="ent0002" id="cluster_....."><path d="M72.5,127.5869 L143.4997,127.5869 A3.75,3.75 0 0 1 145.9997,130.0869 L152.9997,149.8838 L327.5,149.8838 A2.5,2.5 0 0 1 330,152.3838 L330,567.5369 A2.5,2.5 0 0 1 327.5,570.0369 L72.5,570.0369 A2.5,2.5 0 0 1 70,567.5369 L70,130.0869 A2.5,2.5 0 0 1 72.5,127.5869" fill="none" style="stroke:#000000;stroke-width:1.5;"/><line style="stroke:#000000;stroke-width:1.5;" x1="70" x2="152.9997" y1="149.8838" y2="149.8838"/><text fill="#000000" font-family="sans-serif" font-size="14" font-weight="bold" lengthAdjust="spacing" textLength="69.9997" x="74" y="142.582">&#23487;&#20027;&#26426;&#29615;&#22659;</text></g><!--cluster Ollama_contain--><g class="cluster" data-entity="Ollama_contain" data-source-line="10" data-uid="ent0004" id="cluster_Ollama_contain"><polygon fill="none" points="102,279.8869,112,269.8869,298,269.8869,298,528.0369,288,538.0369,102,538.0369,102,279.8869" style="stroke:#181818;stroke-width:1;"/><line style="stroke:#181818;stroke-width:1;" x1="288" x2="298" y1="279.8869" y2="269.8869"/><line style="stroke:#181818;stroke-width:1;" x1="102" x2="288" y1="279.8869" y2="279.8869"/><line style="stroke:#181818;stroke-width:1;" x1="288" x2="288" y1="279.8869" y2="538.0369"/><text fill="#000000" font-family="sans-serif" font-size="14" font-weight="bold" lengthAdjust="spacing" textLength="120.7705" x="135.6147" y="295.882">Ollama_contain</text></g><!--cluster persistent_storage--><g class="cluster" data-entity="persistent_storage" data-source-line="19" data-uid="ent0008" id="cluster_persistent_storage"><path d="M173,657.0369 C173,647.0369 317.5,647.0369 317.5,647.0369 C317.5,647.0369 462,647.0369 462,657.0369 L462,739.3269 C462,749.3269 317.5,749.3269 317.5,749.3269 C317.5,749.3269 173,749.3269 173,739.3269 L173,657.0369" fill="none" style="stroke:#181818;stroke-width:1;"/><path d="M173,657.0369 C173,667.0369 317.5,667.0369 317.5,667.0369 C317.5,667.0369 462,667.0369 462,657.0369" fill="none" style="stroke:#181818;stroke-width:1;"/><text fill="#000000" font-family="sans-serif" font-size="14" font-weight="bold" lengthAdjust="spacing" textLength="217.4234" x="208.7883" y="682.032">&#25345;&#20037;&#21270;&#23384;&#20648;&#65288;Docker Volume&#65289;</text></g><!--cluster ????????--><g class="cluster" data-entity="........" data-source-line="25" data-uid="ent0011" id="cluster_........"><path d="M8.5,806.3269 L121.4995,806.3269 A3.75,3.75 0 0 1 123.9995,808.8269 L130.9995,828.6238 L843.5,828.6238 A2.5,2.5 0 0 1 846,831.1238 L846,891.1269 A2.5,2.5 0 0 1 843.5,893.6269 L8.5,893.6269 A2.5,2.5 0 0 1 6,891.1269 L6,808.8269 A2.5,2.5 0 0 1 8.5,806.3269" fill="none" style="stroke:#000000;stroke-width:1.5;"/><line style="stroke:#000000;stroke-width:1.5;" x1="6" x2="130.9995" y1="828.6238" y2="828.6238"/><text fill="#000000" font-family="sans-serif" font-size="14" font-weight="bold" lengthAdjust="spacing" textLength="111.9995" x="10" y="821.322">&#26412;&#22320;&#24320;&#28304;&#22823;&#27169;&#22411;&#24211;</text></g><!--cluster cloud_apis--><g class="cluster" data-entity="cloud_apis" data-source-line="33" data-uid="ent0016" id="cluster_cloud_apis"><path d="M502.8098,632.0564 C519.5502,605.1545 536.2933,606.3631 555.419,629.551 C565.6492,609.4961 579.5003,607.3983 594.665,624.3126 C611.373,601.1167 632.383,604.9076 645.0887,628.6153 C658.6188,605.5366 673.6195,603.8039 692.7938,622.1089 C707.3036,602.092 726.1709,605.2779 735.8907,627.0489 C746.6203,605.8137 770.5412,598.4897 785.726,622.0977 C796.3131,599.1911 812.4782,598.6281 826.9882,618.2956 C842.9562,599.6066 863.289,596.8968 874.896,622.9638 C886.7838,602.1459 905.4832,600.1498 919.7552,620.3568 C934.0271,598.9983 955.8982,601.0757 967.9203,622.868 C986.8409,596.7816 1003.0924,599.0479 1018.5247,626.1846 C1032.3085,606.5627 1045.9159,608.7911 1059.0173,626.9165 C1071.6541,603.5822 1095.4961,602.0092 1108.8315,626.184 C1127.2442,606.1754 1144.7319,611.1319 1156,634.0369 C1157.5416,633.2865 1158.3861,634.2338 1158.2814,635.7178 C1184.3719,651.6206 1190.6118,679.4819 1160.8085,697.6649 C1191.8647,720.9692 1179.7302,752.8057 1149,765.3269 C1153.0347,766.1134 1153.7054,769.1625 1151.1584,772.0592 C1137.1436,793.8768 1116.0016,790.8667 1104.3275,769.5197 C1090.7694,792.257 1072.3042,790.124 1057.0128,771.5027 C1041.2024,789.8263 1025.4608,789.2632 1013.9078,766.9831 C1002.262,787.5829 986.0416,795.2249 968.5605,773.1895 C954.1779,792.7982 934.8789,791.5302 921.7948,771.6517 C906.6259,790.5061 889.2118,794.1658 874.5843,771.0429 C861.7966,793.7085 840.494,792.3996 827.7628,770.9828 C811.7841,796.1733 796.6243,793.4024 779.8667,771.7797 C769.6267,795.1205 748.8712,790.7885 736.6906,773.8604 C723.9531,793.484 705.978,792.6887 694.1554,772.8738 C675.7802,793.4654 660.3208,792.3237 647.2181,767.4327 C631.7377,791.6273 613.2652,796.1209 596.4394,768.7578 C582.8915,792.1221 562.4064,788.3582 551.6738,766.0014 C530.2306,794.6742 507.7659,787.3494 494,758.3269 C499.5516,757.4949 501.8056,761.711 499.56,766.3097 C466.2862,751.8777 463.1613,728.8197 488.4216,703.9351 C459.1826,674.904 459.066,644.4261 501,627.0369 C504.0942,627.8536 504.4522,629.5319 502.8098,632.0564" fill="none" style="stroke:#181818;stroke-width:1;"/><text fill="#000000" font-family="sans-serif" font-size="14" font-weight="bold" lengthAdjust="spacing" textLength="87.1785" x="781.4108" y="645.032">&#20113;&#26381;&#21153;&#21830; API</text></g><!--cluster Google Cloud--><g class="cluster" data-entity="Google Cloud" data-source-line="34" data-uid="ent0017" id="cluster_Google Cloud"><path d="M512.5,662.0369 L618.0967,662.0369 A3.75,3.75 0 0 1 620.5967,664.5369 L627.5967,684.3338 L687.5,684.3338 A2.5,2.5 0 0 1 690,686.8338 L690,746.8269 A2.5,2.5 0 0 1 687.5,749.3269 L512.5,749.3269 A2.5,2.5 0 0 1 510,746.8269 L510,664.5369 A2.5,2.5 0 0 1 512.5,662.0369" fill="none" style="stroke:#000000;stroke-width:1.5;"/><line style="stroke:#000000;stroke-width:1.5;" x1="510" x2="627.5967" y1="684.3338" y2="684.3338"/><text fill="#000000" font-family="sans-serif" font-size="14" font-weight="bold" lengthAdjust="spacing" textLength="104.5967" x="514" y="677.032">Google Cloud</text></g><!--cluster Anthropic--><g class="cluster" data-entity="Anthropic" data-source-line="37" data-uid="ent0019" id="cluster_Anthropic"><path d="M716.5,662.0369 L794.6025,662.0369 A3.75,3.75 0 0 1 797.1025,664.5369 L804.1025,684.3338 L923.5,684.3338 A2.5,2.5 0 0 1 926,686.8338 L926,746.8269 A2.5,2.5 0 0 1 923.5,749.3269 L716.5,749.3269 A2.5,2.5 0 0 1 714,746.8269 L714,664.5369 A2.5,2.5 0 0 1 716.5,662.0369" fill="none" style="stroke:#000000;stroke-width:1.5;"/><line style="stroke:#000000;stroke-width:1.5;" x1="714" x2="804.1025" y1="684.3338" y2="684.3338"/><text fill="#000000" font-family="sans-serif" font-size="14" font-weight="bold" lengthAdjust="spacing" textLength="77.1025" x="718" y="677.032">Anthropic</text></g><!--cluster OpenAI ????????--><g class="cluster" data-entity="OpenAI ........" data-source-line="40" data-uid="ent0021" id="cluster_OpenAI ........"><path d="M952.5,662.0369 L1127.8022,662.0369 A3.75,3.75 0 0 1 1130.3022,664.5369 L1137.3022,684.3338 L1137.5,684.3338 A2.5,2.5 0 0 1 1140,686.8338 L1140,746.8269 A2.5,2.5 0 0 1 1137.5,749.3269 L952.5,749.3269 A2.5,2.5 0 0 1 950,746.8269 L950,664.5369 A2.5,2.5 0 0 1 952.5,662.0369" fill="none" style="stroke:#000000;stroke-width:1.5;"/><line style="stroke:#000000;stroke-width:1.5;" x1="950" x2="1137.3022" y1="684.3338" y2="684.3338"/><text fill="#000000" font-family="sans-serif" font-size="14" font-weight="bold" lengthAdjust="spacing" textLength="174.3022" x="954" y="677.032">OpenAI &#20860;&#23481;&#32593;&#20851;&#65288;&#21487;&#36873;&#65289;</text></g><!--cluster gateway--><g class="cluster" data-entity="gateway" data-source-line="77" data-uid="ent0042" id="cluster_gateway"><rect fill="none" height="103.3" rx="2.5" ry="2.5" style="stroke:#181818;stroke-width:1;" width="199" x="362" y="434.7369"/><path d="M553.9992,434.7369 L553.9992,444.0338 L543.9992,454.0338 L362,454.0338" fill="none" style="stroke:#181818;stroke-width:1;"/><text fill="#000000" font-family="sans-serif" font-size="14" font-weight="bold" lengthAdjust="spacing" textLength="181.9992" x="365" y="448.732">&#28151;&#21512;&#27169;&#22411;&#32593;&#20851;&#65288;&#21487;&#36873;&#20013;&#38388;&#20214;&#65289;</text></g><!--entity docker_engine--><g class="entity" data-entity="docker_engine" data-source-line="8" data-uid="ent0003" id="entity_docker_engine"><rect fill="#F1F1F1" height="36.2969" rx="2.5" ry="2.5" style="stroke:#181818;stroke-width:0.5;" width="101.9696" x="86.02" y="162.5869"/><text fill="#000000" font-family="sans-serif" font-size="14" lengthAdjust="spacing" textLength="81.9696" x="96.02" y="185.582">Docker &#24341;&#25806;</text></g><!--entity ollama_server--><g class="entity" data-entity="ollama_server" data-source-line="11" data-uid="ent0005" id="entity_ollama_server"><rect fill="#F1F1F1" height="36.2969" rx="2.5" ry="2.5" style="stroke:#181818;stroke-width:0.5;" width="102.0448" x="171.98" y="317.8869"/><text fill="#000000" font-family="sans-serif" font-size="14" lengthAdjust="spacing" textLength="82.0448" x="181.98" y="340.882">Ollama &#26381;&#21153;</text></g><!--entity model_registry--><g class="entity" data-entity="model_registry" data-source-line="12" data-uid="ent0006" id="entity_model_registry"><rect fill="#F1F1F1" height="36.2969" rx="2.5" ry="2.5" style="stroke:#181818;stroke-width:0.5;" width="117.9996" x="156" y="477.7369"/><text fill="#000000" font-family="sans-serif" font-size="14" lengthAdjust="spacing" textLength="97.9996" x="166" y="500.732">&#26412;&#22320;&#27169;&#22411;&#27880;&#20876;&#34920;</text></g><!--entity local_models--><g class="entity" data-entity="local_models" data-source-line="20" data-uid="ent0009" id="entity_local_models"><rect fill="#F1F1F1" height="36.2969" rx="2.5" ry="2.5" style="stroke:#181818;stroke-width:0.5;" width="131.9995" x="189" y="697.0369"/><text fill="#000000" font-family="sans-serif" font-size="14" lengthAdjust="spacing" textLength="111.9995" x="199" y="720.032">&#24050;&#19979;&#36733;&#30340;&#26412;&#22320;&#27169;&#22411;</text></g><!--entity config_cache--><g class="entity" data-entity="config_cache" data-source-line="21" data-uid="ent0010" id="entity_config_cache"><rect fill="#F1F1F1" height="36.2969" rx="2.5" ry="2.5" style="stroke:#181818;stroke-width:0.5;" width="89.9997" x="356" y="697.0369"/><text fill="#000000" font-family="sans-serif" font-size="14" lengthAdjust="spacing" textLength="69.9997" x="366" y="720.032">&#37197;&#32622;&#19982;&#32531;&#23384;</text></g><!--entity qwen3:1.7b-q4_K_M--><g class="entity" data-entity="qwen3.1.7b-q4_K_M" data-source-line="26" data-uid="ent0012" id="entity_qwen3.1.7b-q4_K_M"><rect fill="#F1F1F1" height="36.2969" rx="2.5" ry="2.5" style="stroke:#181818;stroke-width:0.5;" width="160.7041" x="174.65" y="841.3269"/><text fill="#000000" font-family="sans-serif" font-size="14" lengthAdjust="spacing" textLength="140.7041" x="184.65" y="864.322">qwen3:1.7b-q4_K_M</text></g><!--entity qwen2.5-coder:1.5b-instruct-q5_K_M--><g class="entity" data-entity="qwen2.5-coder.1.5b-instruct-q5_K_M" data-source-line="27" data-uid="ent0013" id="entity_qwen2.5-coder.1.5b-instruct-q5_K_M"><rect fill="#F1F1F1" height="36.2969" rx="2.5" ry="2.5" style="stroke:#181818;stroke-width:0.5;" width="277.0449" x="370.48" y="841.3269"/><text fill="#000000" font-family="sans-serif" font-size="14" lengthAdjust="spacing" textLength="257.0449" x="380.48" y="864.322">qwen2.5-coder:1.5b-instruct-q5_K_M</text></g><!--entity qwen3:4b-instruct--><g class="entity" data-entity="qwen3.4b-instruct" data-source-line="28" data-uid="ent0014" id="entity_qwen3.4b-instruct"><rect fill="#F1F1F1" height="36.2969" rx="2.5" ry="2.5" style="stroke:#181818;stroke-width:0.5;" width="147.6543" x="682.17" y="841.3269"/><text fill="#000000" font-family="sans-serif" font-size="14" lengthAdjust="spacing" textLength="127.6543" x="692.17" y="864.322">qwen3:4b-instruct</text></g><!--entity ??????...--><g class="entity" data-entity="........." data-source-line="29" data-uid="ent0015" id="entity_........."><rect fill="#F1F1F1" height="36.2969" rx="2.5" ry="2.5" style="stroke:#181818;stroke-width:0.5;" width="117.3502" x="22.32" y="841.3269"/><text fill="#000000" font-family="sans-serif" font-size="14" lengthAdjust="spacing" textLength="97.3502" x="32.32" y="864.322">&#20854;&#20182;&#24320;&#28304;&#27169;&#22411;...</text></g><!--entity Gemini Pro / Flash--><g class="entity" data-entity="Gemini Pro . Flash" data-source-line="35" data-uid="ent0018" id="entity_Gemini Pro . Flash"><rect fill="#F1F1F1" height="36.2969" rx="2.5" ry="2.5" style="stroke:#181818;stroke-width:0.5;" width="147.2715" x="526.36" y="697.0369"/><text fill="#000000" font-family="sans-serif" font-size="14" lengthAdjust="spacing" textLength="127.2715" x="536.36" y="720.032">Gemini Pro / Flash</text></g><!--entity Claude 3 Haiku/Sonnet--><g class="entity" data-entity="Claude 3 Haiku.Sonnet" data-source-line="38" data-uid="ent0020" id="entity_Claude 3 Haiku.Sonnet"><rect fill="#F1F1F1" height="36.2969" rx="2.5" ry="2.5" style="stroke:#181818;stroke-width:0.5;" width="180.4189" x="729.79" y="697.0369"/><text fill="#000000" font-family="sans-serif" font-size="14" lengthAdjust="spacing" textLength="160.4189" x="739.79" y="720.032">Claude 3 Haiku/Sonnet</text></g><!--entity GPT-4o-mini ?--><g class="entity" data-entity="GPT-4o-mini ." data-source-line="41" data-uid="ent0022" id="entity_GPT-4o-mini ."><rect fill="#F1F1F1" height="36.2969" rx="2.5" ry="2.5" style="stroke:#181818;stroke-width:0.5;" width="124.1591" x="965.92" y="697.0369"/><text fill="#000000" font-family="sans-serif" font-size="14" lengthAdjust="spacing" textLength="104.1591" x="975.92" y="720.032">GPT-4o-mini &#31561;</text></g><!--entity ????????--><g class="entity" data-entity="........" data-source-line="78" data-uid="ent0043" id="entity_........"><rect fill="#F1F1F1" height="36.2969" rx="2.5" ry="2.5" style="stroke:#181818;stroke-width:0.5;" width="131.9995" x="386" y="477.7369"/><text fill="#000000" font-family="sans-serif" font-size="14" lengthAdjust="spacing" textLength="111.9995" x="396" y="500.732">&#27169;&#22411;&#36335;&#30001;&#19982;&#36866;&#37197;&#22120;</text></g><!--entity user--><g class="entity" data-entity="user" data-source-line="46" data-uid="ent0023" id="entity_user"><rect fill="#F1F1F1" height="36.2969" rx="2.5" ry="2.5" style="stroke:#181818;stroke-width:0.5;" width="75.9998" x="581" y="44.2969"/><text fill="#000000" font-family="sans-serif" font-size="14" lengthAdjust="spacing" textLength="55.9998" x="591" y="67.292">&#32456;&#31471;&#29992;&#25143;</text></g><!--entity cli--><g class="entity" data-entity="cli" data-source-line="47" data-uid="ent0024" id="entity_cli"><rect fill="#F1F1F1" height="36.2969" rx="2.5" ry="2.5" style="stroke:#181818;stroke-width:0.5;" width="99.0779" x="488.46" y="162.5869"/><text fill="#000000" font-family="sans-serif" font-size="14" lengthAdjust="spacing" textLength="79.0779" x="498.46" y="185.582">&#21629;&#20196;&#34892; (CLI)</text></g><!--entity api_client--><g class="entity" data-entity="api_client" data-source-line="48" data-uid="ent0025" id="entity_api_client"><rect fill="#F1F1F1" height="36.2969" rx="2.5" ry="2.5" style="stroke:#181818;stroke-width:0.5;" width="129.1219" x="637.44" y="162.5869"/><text fill="#000000" font-family="sans-serif" font-size="14" lengthAdjust="spacing" textLength="109.1219" x="647.44" y="185.582">HTTP API &#23458;&#25143;&#31471;</text></g><g class="entity" data-entity="GMN36" data-source-line="65" data-uid="ent0037" id="entity_GMN36"><path d="M345.6,308.3369 L345.6,332.0369 L274.38,336.0369 L345.6,340.0369 L345.6,363.7353 A0,0 0 0 0 345.6,363.7353 L648.4044,363.7353 A0,0 0 0 0 648.4044,363.7353 L648.4044,318.3369 L638.4044,308.3369 L345.6,308.3369 A0,0 0 0 0 345.6,308.3369" fill="#FEFFDD" style="stroke:#181818;stroke-width:0.5;"/><path d="M638.4044,308.3369 L638.4044,318.3369 L648.4044,318.3369 L638.4044,308.3369" fill="#FEFFDD" style="stroke:#181818;stroke-width:0.5;"/><text fill="#000000" font-family="sans-serif" font-size="13" lengthAdjust="spacing" textLength="281.8044" x="351.6" y="325.4038">Ollama &#22312;&#23481;&#22120;&#20869;&#36816;&#34892;&#65292;&#40664;&#35748;&#30417;&#21548; 11434 &#31471;&#21475;&#12290;</text><text fill="#000000" font-family="sans-serif" font-size="13" lengthAdjust="spacing" textLength="195.0002" x="395.0021" y="340.5366">&#26681;&#25454;&#35831;&#27714;&#33258;&#21160;&#21152;&#36733;&#23545;&#24212;&#26412;&#22320;&#27169;&#22411;&#65292;</text><text fill="#000000" font-family="sans-serif" font-size="13" lengthAdjust="spacing" textLength="195.0002" x="395.0021" y="355.6694">&#25903;&#25345;&#27169;&#22411;&#21035;&#21517;&#31649;&#29702;&#21644;&#19978;&#19979;&#25991;&#20445;&#25345;&#12290;</text></g><g class="entity" data-entity="GMN39" data-source-line="71" data-uid="ent0040" id="entity_GMN39"><path d="M1430.25,687.4869 L1430.25,742.8853 L1733.7589,742.8853 L1733.7589,697.4869 L1723.7589,687.4869 L1430.25,687.4869" fill="#FEFFDD" style="stroke:#181818;stroke-width:0.5;"/><path d="M1723.7589,687.4869 L1723.7589,697.4869 L1733.7589,697.4869 L1723.7589,687.4869" fill="#FEFFDD" style="stroke:#181818;stroke-width:1;"/><text fill="#000000" font-family="sans-serif" font-size="13" lengthAdjust="spacing" textLength="223.2473" x="1465.8808" y="704.5538">&#25152;&#26377;&#27169;&#22411;&#36890;&#36807; Docker &#21367;&#25346;&#36733;&#25345;&#20037;&#21270;&#65292;</text><text fill="#000000" font-family="sans-serif" font-size="13" lengthAdjust="spacing" textLength="282.5089" x="1436.25" y="719.6866">&#36335;&#24452;&#31034;&#20363;&#65306;/usr/share/ollama/.ollama/models</text><text fill="#000000" font-family="sans-serif" font-size="13" lengthAdjust="spacing" textLength="130.0002" x="1512.5043" y="734.8194">&#36991;&#20813;&#37325;&#21551;&#21518;&#37325;&#26032;&#19979;&#36733;&#12290;</text></g><g class="entity" data-entity="GMN48" data-source-line="87" data-uid="ent0049" id="entity_GMN48"><path d="M777.38,453.0569 L777.38,538.7209 L1134.6282,538.7209 L1134.6282,463.0569 L1124.6282,453.0569 L777.38,453.0569" fill="#FEFFDD" style="stroke:#181818;stroke-width:0.5;"/><path d="M1124.6282,453.0569 L1124.6282,463.0569 L1134.6282,463.0569 L1124.6282,453.0569" fill="#FEFFDD" style="stroke:#181818;stroke-width:1;"/><text fill="#000000" font-family="sans-serif" font-size="13" lengthAdjust="spacing" textLength="117.0001" x="893.004" y="470.1238">&#25552;&#20379;&#32479;&#19968;&#25509;&#21475;&#23553;&#35013;&#65306;</text><text fill="#000000" font-family="sans-serif" font-size="13" lengthAdjust="spacing" textLength="216.4108" x="843.2987" y="485.2566">- &#23558; Ollama &#39118;&#26684;&#35831;&#27714;&#36716;&#20026; REST API</text><text fill="#000000" font-family="sans-serif" font-size="13" lengthAdjust="spacing" textLength="118.003" x="892.5026" y="500.3894">- &#28155;&#21152; API Key &#35748;&#35777;</text><text fill="#000000" font-family="sans-serif" font-size="13" lengthAdjust="spacing" textLength="125.8234" x="888.5924" y="515.5222">- &#25903;&#25345;&#21709;&#24212;&#26684;&#24335;&#24402;&#19968;&#21270;</text><text fill="#000000" font-family="sans-serif" font-size="13" lengthAdjust="spacing" textLength="336.2482" x="783.38" y="530.655">&#21487;&#36873;&#25216;&#26415;&#65306;LiteLLM&#12289;Ollama + OpenRouter&#12289;&#33258;&#30740;&#20195;&#29702;</text></g><!--entity ????--><g class="entity" data-entity="...." data-source-line="95" data-uid="ent0051" id="entity_...."><rect fill="#F1F1F1" height="36.2969" rx="2.5" ry="2.5" style="stroke:#181818;stroke-width:0.5;" width="75.9998" x="346" y="162.5869"/><text fill="#000000" font-family="sans-serif" font-size="14" lengthAdjust="spacing" textLength="55.9998" x="356" y="185.582">&#32456;&#31471;&#29992;&#25143;</text></g><!--link docker_engine to Ollama_contain--><g class="link" data-entity-1="docker_engine" data-entity-2="Ollama_contain" data-source-line="15" data-uid="lnk7" id="link_docker_engine_Ollama_contain"><path d="M131.05,198.9769 C128.31,207.7969 125.37,218.7869 124,228.8869 C122.4425,240.3969 121.8331,252.6706 121.7995,264.6352 C121.7953,266.1307 121.8001,267.6215 121.8132,269.1053 C121.8148,269.2907 121.7554,263.4764 121.7573,263.6617" fill="none" id="docker_engine-to-Ollama_contain" style="stroke:#181818;stroke-width:1;"/><polygon fill="#181818" points="121.8185,269.6614,125.7264,260.621,121.7675,264.6616,117.7269,260.7026,121.8185,269.6614" style="stroke:#181818;stroke-width:1;"/><text fill="#000000" font-family="sans-serif" font-size="13" lengthAdjust="spacing" textLength="91.0001" x="125" y="241.9538">&#21551;&#21160;&#24182;&#38548;&#31163;&#36816;&#34892;</text></g><!--link user to cli--><g class="link" data-entity-1="user" data-entity-2="cli" data-source-line="50" data-uid="lnk26" id="link_user_cli"><path d="M606.87,80.8569 C591.6,102.7769 568.9493,135.3035 553.6393,157.2835" fill="none" id="user-to-cli" style="stroke:#181818;stroke-width:1;"/><polygon fill="#181818" points="550.21,162.2069,558.6363,157.108,553.0678,158.1041,552.0718,152.5356,550.21,162.2069" style="stroke:#181818;stroke-width:1;"/></g><!--link user to api_client--><g class="link" data-entity-1="user" data-entity-2="api_client" data-source-line="51" data-uid="lnk27" id="link_user_api_client"><path d="M631.43,80.8569 C647.07,102.7769 670.314,135.3434 686.004,157.3234" fill="none" id="user-to-api_client" style="stroke:#181818;stroke-width:1;"/><polygon fill="#181818" points="689.49,162.2069,687.5167,152.5577,686.585,158.1373,681.0054,157.2057,689.49,162.2069" style="stroke:#181818;stroke-width:1;"/></g><!--link cli to ollama_server--><g class="link" data-entity-1="cli" data-entity-2="ollama_server" data-source-line="53" data-uid="lnk28" id="link_cli_ollama_server"><path d="M496.45,199.3269 C476.06,208.0669 451.17,218.8669 429,228.8869 C412.88,236.1769 410,240.9669 393,245.8869 C365.04,253.9869 354.92,242.8169 328,253.8869 C292.63,268.4369 263.237,294.0086 243.947,313.1686" fill="none" id="cli-to-ollama_server" style="stroke:#181818;stroke-width:1;"/><polygon fill="#181818" points="239.69,317.3969,248.8943,313.8924,243.2375,313.8733,243.2566,308.2165,239.69,317.3969" style="stroke:#181818;stroke-width:1;"/><text fill="#000000" font-family="sans-serif" font-size="13" lengthAdjust="spacing" textLength="239.6241" x="430" y="241.9538">&#35831;&#27714;&#27169;&#22411;&#65288;&#22914; run qwen3:4b-instruct&#65289;</text></g><!--link api_client to ollama_server--><g class="link" data-entity-1="api_client" data-entity-2="ollama_server" data-source-line="54" data-uid="lnk29" id="link_api_client_ollama_server"><path d="M699.61,199.2069 C696.51,214.3669 689.54,235.4569 674,245.8869 C658.04,256.6069 346.12,247.4669 328,253.8869 C291.52,266.8169 261.8562,293.3995 242.9162,313.1195" fill="none" id="api_client-to-ollama_server" style="stroke:#181818;stroke-width:1;"/><polygon fill="#181818" points="238.76,317.4469,247.8792,313.7266,242.2235,313.8407,242.1094,308.185,238.76,317.4469" style="stroke:#181818;stroke-width:1;"/><text fill="#000000" font-family="sans-serif" font-size="13" lengthAdjust="spacing" textLength="78.0001" x="689" y="241.9538">&#21457;&#36865;&#25512;&#29702;&#35831;&#27714;</text></g><!--link ollama_server to model_registry--><g class="link" data-entity-1="ollama_server" data-entity-2="model_registry" data-source-line="56" data-uid="lnk30" id="link_ollama_server_model_registry"><path d="M222.11,354.5369 C220.58,384.8769 217.7337,440.9246 216.1937,471.3146" fill="none" id="ollama_server-to-model_registry" style="stroke:#181818;stroke-width:1;"/><polygon fill="#181818" points="215.89,477.3069,220.3404,468.5208,216.143,472.3133,212.3506,468.116,215.89,477.3069" style="stroke:#181818;stroke-width:1;"/><text fill="#000000" font-family="sans-serif" font-size="13" lengthAdjust="spacing" textLength="78.0001" x="221" y="406.8038">&#26597;&#35810;&#21487;&#29992;&#27169;&#22411;</text></g><!--link model_registry to local_models--><g class="link" data-entity-1="model_registry" data-entity-2="local_models" data-source-line="57" data-uid="lnk31" id="link_model_registry_local_models"><path d="M218.21,514.2969 C225.7,554.9869 243.1831,650.0161 250.6931,690.7861" fill="none" id="model_registry-to-local_models" style="stroke:#181818;stroke-width:1;"/><polygon fill="#181818" points="251.78,696.6869,254.0834,687.1112,250.8742,691.7696,246.2158,688.5604,251.78,696.6869" style="stroke:#181818;stroke-width:1;"/><text fill="#000000" font-family="sans-serif" font-size="13" lengthAdjust="spacing" textLength="117.0001" x="235" y="599.1038">&#21152;&#36733;&#25351;&#23450;&#27169;&#22411;&#21040;&#20869;&#23384;</text></g><!--link local_models to qwen3:1.7b-q4_K_M--><g class="link" data-entity-1="local_models" data-entity-2="qwen3.1.7b-q4_K_M" data-source-line="59" data-uid="lnk32" id="link_local_models_qwen3.1.7b-q4_K_M"><path d="M255,733.6269 C255,760.9369 255,807.4869 255,834.8869" fill="none" id="local_models-to-qwen3:1.7b-q4_K_M" style="stroke:#181818;stroke-width:1;"/><polygon fill="#181818" points="255,840.8869,259,831.8869,255,835.8869,251,831.8869,255,840.8869" style="stroke:#181818;stroke-width:1;"/></g><!--link local_models to qwen2.5-coder:1.5b-instruct-q5_K_M--><g class="link" data-entity-1="local_models" data-entity-2="qwen2.5-coder.1.5b-instruct-q5_K_M" data-source-line="60" data-uid="lnk33" id="link_local_models_qwen2.5-coder.1.5b-instruct-q5_K_M"><path d="M274.75,733.6469 C291.19,747.6469 315.61,767.2169 339,781.3269 C378.96,805.4369 422.1943,824.5957 457.2343,838.7057" fill="none" id="local_models-to-qwen2.5-coder:1.5b-instruct-q5_K_M" style="stroke:#181818;stroke-width:1;"/><polygon fill="#181818" points="462.8,840.9469,455.9456,833.8746,458.1619,839.0792,452.9573,841.2955,462.8,840.9469" style="stroke:#181818;stroke-width:1;"/></g><!--link local_models to qwen3:4b-instruct--><g class="link" data-entity-1="local_models" data-entity-2="qwen3.4b-instruct" data-source-line="61" data-uid="lnk34" id="link_local_models_qwen3.4b-instruct"><path d="M271.09,733.6469 C286.72,749.2969 312.01,771.2969 339,781.3269 C373,793.9669 630.55,786.9869 665,798.3269 C692.16,807.2769 714.3098,822.781 731.7098,837.121" fill="none" id="local_models-to-qwen3:4b-instruct" style="stroke:#181818;stroke-width:1;"/><polygon fill="#181818" points="736.34,840.9369,731.9387,832.1262,732.4815,837.7569,726.8508,838.2998,736.34,840.9369" style="stroke:#181818;stroke-width:1;"/></g><!--link local_models to ??????...--><g class="link" data-entity-1="local_models" data-entity-2="........." data-source-line="62" data-uid="lnk35" id="link_local_models_........."><path d="M233.66,733.6269 C200.27,760.9369 140.6544,809.6882 107.1544,837.0882" fill="none" id="local_models-to-&#20854;&#20182;&#24320;&#28304;&#27169;&#22411;..." style="stroke:#181818;stroke-width:1;"/><polygon fill="#181818" points="102.51,840.8869,112.009,838.2851,106.3803,837.7213,106.9441,832.0926,102.51,840.8869" style="stroke:#181818;stroke-width:1;"/></g><!--link local_models to GMN39--><g class="link" data-entity-1="local_models" data-entity-2="GMN39" data-source-line="71" data-uid="lnk41" id="link_local_models_GMN39"><path d="M263.23,696.7969 C277.39,667.9069 309.44,613.2269 356.5,594.5369 C409.63,573.4369 1330.49,578.9969 1385.5,594.5369 C1449.06,612.4869 1512.32,657.4169 1549.26,687.0969" fill="none" id="local_models-GMN39" style="stroke:#181818;stroke-width:1;stroke-dasharray:7,7;"/></g><!--link ollama_server to gateway--><g class="link" data-entity-1="ollama_server" data-entity-2="gateway" data-source-line="81" data-uid="lnk44" id="link_ollama_server_gateway"><path d="M271.46,354.6269 C319.84,371.5069 396.64,396.4869 465,410.7369 C480.11,413.8869 522.4,408.5469 534,418.7369 C537.1737,421.5244 539.8575,424.7534 542.1234,428.2762 C543.2563,430.0376 544.2848,431.8725 545.2178,433.7622 C545.3344,433.9985 542.863,428.8217 542.9767,429.0596" fill="none" id="ollama_server-to-gateway" style="stroke:#181818;stroke-width:1;"/><polygon fill="#181818" points="545.5632,434.4734,545.2926,424.6283,543.4078,429.9619,538.0742,428.077,545.5632,434.4734" style="stroke:#181818;stroke-width:1;"/><text fill="#000000" font-family="sans-serif" font-size="13" lengthAdjust="spacing" textLength="130.0002" x="466" y="406.8038">&#35831;&#27714;&#26410;&#26412;&#22320;&#37096;&#32626;&#30340;&#27169;&#22411;</text></g><!--link gateway to Gemini Pro / Flash--><g class="link" data-entity-1="gateway" data-entity-2="Gemini Pro . Flash" data-source-line="82" data-uid="lnk45" id="link_gateway_Gemini Pro . Flash"><path d="M553.0551,538.2021 C552.9734,538.7475 552.8874,539.2937 552.7971,539.8404 C552.6164,540.9339 552.4182,542.0294 552.2011,543.1246 C551.3328,547.5053 550.1631,551.8797 548.6088,556.0869 C545.5,564.5013 540.8525,572.2469 534,578.0369 C512.06,596.5669 424.67,565.1069 405,586.0369 C399.83,591.5369 400.04,597.3269 405,603.0369 C413.39,612.6869 450.17,606.1669 462,611.0369 C510.95,631.1969 553.8728,668.6098 578.3628,692.3598" fill="none" id="gateway-to-Gemini Pro / Flash" style="stroke:#181818;stroke-width:1;"/><polygon fill="#181818" points="582.67,696.5369,578.9939,687.3998,579.0807,693.056,573.4245,693.1428,582.67,696.5369" style="stroke:#181818;stroke-width:1;"/><text fill="#000000" font-family="sans-serif" font-size="13" lengthAdjust="spacing" textLength="149.1574" x="406" y="599.1038">&#36716;&#25442;&#35831;&#27714;&#26684;&#24335; + &#35748;&#35777;&#36716;&#21457;</text></g><!--link gateway to Claude 3 Haiku/Sonnet--><g class="link" data-entity-1="gateway" data-entity-2="Claude 3 Haiku.Sonnet" data-source-line="83" data-uid="lnk46" id="link_gateway_Claude 3 Haiku.Sonnet"><path d="M558.7921,538.3198 C558.8291,538.4553 558.8663,538.5909 558.9038,538.7265 C559.2035,539.8113 559.5184,540.9002 559.8493,541.9908 C561.1729,546.3534 562.7523,550.7439 564.6367,555.0153 C568.4056,563.5581 573.395,571.6244 580,578.0369 C616.62,613.5869 644.75,587.4169 690,611.0369 C734.7,634.3669 774.7112,669.8318 798.3012,692.5818" fill="none" id="gateway-to-Claude 3 Haiku/Sonnet" style="stroke:#181818;stroke-width:1;"/><polygon fill="#181818" points="802.62,696.7469,798.9184,687.6201,799.021,693.276,793.365,693.3785,802.62,696.7469" style="stroke:#181818;stroke-width:1;"/></g><!--link gateway to GPT-4o-mini ?--><g class="link" data-entity-1="gateway" data-entity-2="GPT-4o-mini ." data-source-line="84" data-uid="lnk47" id="link_gateway_GPT-4o-mini ."><path d="M557.4075,538.3014 C557.5449,538.8472 557.6864,539.3937 557.8321,539.9408 C558.1237,541.035 558.4323,542.1311 558.7589,543.2266 C560.0655,547.6086 561.6608,551.9813 563.6072,556.1825 C567.5,564.585 572.7975,572.3019 580,578.0369 C583.78,581.0369 921.64,608.9669 926,611.0369 C966.5,630.2469 996.5719,667.6857 1013.2219,691.7057" fill="none" id="gateway-to-GPT-4o-mini &#31561;" style="stroke:#181818;stroke-width:1;"/><polygon fill="#181818" points="1016.64,696.6369,1014.8002,686.9614,1013.7915,692.5276,1008.2253,691.5189,1016.64,696.6369" style="stroke:#181818;stroke-width:1;"/></g><!--link gateway to GMN48--><g class="link" data-entity-1="gateway" data-entity-2="GMN48" data-source-line="87" data-uid="lnk50" id="link_gateway_GMN48"><path d="M561.0827,443.6324 C561.1356,443.4565 561.1888,443.2806 561.2424,443.1046 C561.4568,442.4007 561.6767,441.6961 561.9023,440.9913 C562.8049,438.1723 563.799,435.3503 564.894,432.5541 C567.0839,426.9617 569.6772,421.4726 572.7481,416.3173 C578.89,406.0069 586.9425,397.0319 597.5,391.2369 C650.1,362.3669 673.93,378.2069 732.5,391.2369 C786.24,403.1969 842.34,429.5169 884.9,452.7669" fill="none" id="gateway-GMN48" style="stroke:#181818;stroke-width:1;stroke-dasharray:7,7;"/></g><!--link ???? to ollama_server--><g class="link" data-entity-1="...." data-entity-2="ollama_server" data-source-line="95" data-uid="lnk52" id="link_...._ollama_server"><path d="M345.57,194.1169 C310.59,205.6869 263.44,222.1469 257,228.8869 C233.47,253.5169 226.7946,288.4744 224.5646,311.6544" fill="none" id="&#32456;&#31471;&#29992;&#25143;-to-ollama_server" style="stroke:#181818;stroke-width:1;"/><polygon fill="#181818" points="223.99,317.6269,228.8335,309.0513,224.4688,312.6499,220.8702,308.2852,223.99,317.6269" style="stroke:#181818;stroke-width:1;"/><text fill="#000000" font-family="sans-serif" font-size="13" lengthAdjust="spacing" textLength="130.0002" x="258" y="241.9538">&#32479;&#19968;&#20837;&#21475;&#35831;&#27714;&#20219;&#24847;&#27169;&#22411;</text></g><!--link ollama_server to qwen3:4b-instruct--><g class="link" data-entity-1="ollama_server" data-entity-2="qwen3.4b-instruct" data-source-line="96" data-uid="lnk53" id="link_ollama_server_qwen3.4b-instruct"><path d="M274.37,352.4169 C291.29,356.8569 310.31,361.1869 328,363.7369 C436.61,379.3769 1242.04,335.8969 1314,418.7369 C1435.84,558.9969 1269.44,692.9969 1106,781.3269 C1018.55,828.5869 909.9224,846.3324 836.1124,853.4324" fill="none" id="ollama_server-to-qwen3:4b-instruct" style="stroke:#181818;stroke-width:1;stroke-dasharray:7,7;"/><polygon fill="#181818" points="830.14,854.0069,839.4817,857.1267,835.117,853.5281,838.7156,849.1635,830.14,854.0069" style="stroke:#181818;stroke-width:1;"/><text fill="#000000" font-family="sans-serif" font-size="13" lengthAdjust="spacing" textLength="169.0002" x="1338" y="599.1038">&#21160;&#24577;&#21152;&#36733;&#33267;&#20869;&#23384;&#25191;&#34892;&#65288;&#26412;&#22320;&#65289;</text></g><!--link ollama_server to Gemini Pro / Flash--><g class="link" data-entity-1="ollama_server" data-entity-2="Gemini Pro . Flash" data-source-line="97" data-uid="lnk54" id="link_ollama_server_Gemini Pro . Flash"><path d="M274.49,351.6569 C291.42,356.0569 310.42,360.5469 328,363.7369 C388.05,374.6169 560.27,348.2869 601,393.7369 C641.19,438.5869 613.6519,630.8445 603.8919,690.9345" fill="none" id="ollama_server-to-Gemini Pro / Flash" style="stroke:#181818;stroke-width:1;stroke-dasharray:7,7;"/><polygon fill="#181818" points="602.93,696.8569,608.3212,688.6146,603.7316,691.9216,600.4246,687.332,602.93,696.8569" style="stroke:#181818;stroke-width:1;"/><text fill="#000000" font-family="sans-serif" font-size="13" lengthAdjust="spacing" textLength="117.0001" x="622" y="500.4538">&#36716;&#21457;&#33267;&#20113;&#31471;&#65288;&#36828;&#31243;&#65289;</text></g><!--link ollama_server to Claude 3 Haiku/Sonnet--><g class="link" data-entity-1="ollama_server" data-entity-2="Claude 3 Haiku.Sonnet" data-source-line="98" data-uid="lnk55" id="link_ollama_server_Claude 3 Haiku.Sonnet"><path d="M274.41,352.1069 C291.34,356.5269 310.35,360.9269 328,363.7369 C418.62,378.1569 1089.31,351.7269 1152,418.7369 C1200.37,470.4369 1197.85,524.0869 1152,578.0369 C1093.09,647.3469 1033.2,574.2469 950,611.0369 C903.36,631.6569 863.2483,668.7609 840.3483,692.3609" fill="none" id="ollama_server-to-Claude 3 Haiku/Sonnet" style="stroke:#181818;stroke-width:1;stroke-dasharray:7,7;"/><polygon fill="#181818" points="836.17,696.6669,845.3081,692.9934,839.6519,693.0785,839.5668,687.4223,836.17,696.6669" style="stroke:#181818;stroke-width:1;"/><text fill="#000000" font-family="sans-serif" font-size="13" lengthAdjust="spacing" textLength="117.0001" x="1188" y="500.4538">&#36716;&#21457;&#33267;&#20113;&#31471;&#65288;&#36828;&#31243;&#65289;</text></g><g class="legend" data-source-line="100"><rect fill="none" height="42.5938" rx="7.5" ry="7.5" style="stroke:#000000;stroke-width:1;" width="226.63" x="750.0644" y="911.6269"/><text fill="#000000" font-family="sans-serif" font-size="14" lengthAdjust="spacing" textLength="188.6301" x="764.6142" y="929.622">&#23454;&#32447;&#31661;&#22836; = &#30452;&#25509;&#20381;&#36182;&#25110;&#25968;&#25454;&#27969;</text><text fill="#000000" font-family="sans-serif" font-size="14" lengthAdjust="spacing" textLength="216.63" x="755.0644" y="945.9189">&#34394;&#32447;&#31661;&#22836; = &#26465;&#20214;&#24615;&#35843;&#29992;&#25110;&#36923;&#36753;&#36335;&#30001;</text></g><!--SRC=[XLPhJnfP6Fu-l-B4_T3TD6YwQZRRP3SnxlQIsjIqPhyOGqOSSU8mGuTXksQp2LXHj81GBMsLMczjIQj0RtAN7zCvPuPF_eLzppc0W9Y6XC4vx_rvtkVecvTLhwYB7kJIF5vDbLJZWR6WI4YNN8QekXL9yBLCfaNNl5lN_EhCgAPeElhXng_qqsOn8ysAViMOaFunHXJPhNeW7dB1bwGBWY4R41YNDgtDDDav8JjBPvMjFpJNlAGZit1ir-BsNWJTKnJH8o9SF27vF8w7yTgkNQtYIe2KucOXLdz-33_muJkItiCxJmJ12qM9RWdruKpDB9H9gcJ5idZ_SH_wLq1eiX4VLvwHZTWK4dreXhrnIgfRLYK1R5Hj1jnvNgTBKmrHLhat-3VA8QaeNjjZ_Xetz4dwtz0LCoAf8vpAyOh8vpHUZjXxQMRiWTYAKvVSii_G5y3wFvgnemJaSFoEEhEZwmZ7itWj3LEeRsrQRyjyE09uNq4a4ZIB8Hn9ukCNU34jp8Y6E2twe8UkaxDAkD7-NvhYzqXdbTK-MfHNqdrG3y3Yz1cQJgV7PeNpdyp24vYsjRNKtXBhHD5Sek9a_VYeSJqKjQePGCIgR40wPWFbpyfkfqjqpKcyLeuR3uF3ps4ivu3n5DoY1IWkRJIGU_X8KWUlN-l_PThnSCXvntbtgldsv_vXXmiAqU5qUDeXgp1RlyjmF1pkC1kyFdH-oDxYq8bPJhRNrD_VFyKhjMifA_s4qwk1v6OM1Ygu5Cq_W_hCKeAJ03zRHYFZjzaasPbJzCe-LlEifa1LgE-cfi7ce55wscBIJSaZgp8QrpKqW6ueeczkYl7Xt6r4DUPqpIkxMZwZYkW7SWwYMw8yxnzueAcgP7IxtVDAwiXjX4CLd2bQrGGEVGRayNgs7bXba3SB69zm36aELeLrlCh3S9GEa_N7QPpP9-6yzI4hJ5hbC3pfdeRp35a_q5sOn8cgMJwaM_hZwDZjdpZcYYnCtfgO6AT3GQqOx0m6uuHp89eWq0YCwjIXzKUx1JpPkuu5WrMmitdoSP5ZGXjxkuXqluekG0oz2kVnUeR2wubw84XYQIk-pCCAGgSDzUfSMd0Zhz_OsNsOA9q8rvqk6-hMlY4q5nCk4bd1cQtc0kJmSWYMHH0wRAbpBxhtDleU-oyBtR4C5uqksGr1rGou3MJtd86qsGlYrrJh5B2dY5-2z8MuL9rL8lNo2pjpQ6qdSFm8NRisD3Y4W1Xu_U1RO15SoMwHH3CS1NlbFLKxBlNP8jmHxVe3iQWzMyVc93_WUDJAx06E-6d4BAo1S97aYbbx1JOqlgJE85fwTmDTCaPM0oIroeFM0rjsRGKrRunedaGM6O8DKULbsFaiFbso3alcAHIsDU3twGE-EL6N1lXi1leRprQEUh26Gz7wIfHgUZm6FqWonuMsiz8hg5r-wjlB91mdoIBP2mkpSBjIoMHN8Z_lsdIuGUlFlvZbawRAkqL3UYGkS37bBb2xjVcHtgA1HT1lm8k9tyKDQFgsbY_rdWC2Cc5LFz7xWQz1qv1Hg8V2qGZL8nBTRyJPhU3AEhgAW1XsDWX7i96TGIwHlCv4tKhM1NB3cEAx7ZTFjwtoQxCG8B4tG3wS2ze78K0EJXq8vvQR7AuVnA2y1X-hHsQXXEx_-M22oXep9Vao49Ift1rfeT41Fs7Cn1jHoblM8Qu-XOJ06JZdy90r85eMqex9XZGsTlTR8DZ8UnLH0R-l-U6V97WBgs3jRfhb0w1s1pV8inpi2_aQnF54jqBtqZhUD0xHfdbNPhbCbjORo7MQz_UK2QPYQH88yisqLpvp_IAhxzYAXpafgF1U37Sf6m1oY0JtAJG0CVZ5spj6Rp9y9uoWI6uO71rzPiSgrQpCCJxyWdv3rlONu81v-ih-cYJXP6kW2D6zVhdLRajUxS4kaS0xE_UOJJbP3vJjqmHV8GOCJ_C_]--></g></svg>